<?xml version="1.0" standalone="no"?><svg xmlns="http://www.w3.org/2000/svg" viewBox="0 0 1440 320"><path fill="#44ad4e" fill-opacity="1" d="M0,96L34.3,112C68.6,128,137,160,206,165.3C274.3,171,343,149,411,133.3C480,117,549,107,617,133.3C685.7,160,754,224,823,218.7C891.4,213,960,139,1029,101.3C1097.1,64,1166,64,1234,90.7C1302.9,117,1371,171,1406,197.3L1440,224L1440,320L1405.7,320C1371.4,320,1303,320,1234,320C1165.7,320,1097,320,1029,320C960,320,891,320,823,320C754.3,320,686,320,617,320C548.6,320,480,320,411,320C342.9,320,274,320,206,320C137.1,320,69,320,34,320L0,320Z"></path></svg>